<?xml version="1.0" standalone="no"?>
<!DOCTYPE svg PUBLIC "-//W3C//DTD SVG 20010904//EN"
 "http://www.w3.org/TR/2001/REC-SVG-20010904/DTD/svg10.dtd">
<svg version="1.0" xmlns="http://www.w3.org/2000/svg"
 width="651.000000pt" height="651.000000pt" viewBox="0 0 651.000000 651.000000"
 preserveAspectRatio="xMidYMid meet">
<metadata>
Created by potrace 1.14, written by Peter Selinger 2001-2017
</metadata>
<g transform="translate(0.000000,651.000000) scale(0.100000,-0.100000)"
fill="#000000" stroke="none">
<path d="M2463 6315 c-85 -18 -138 -44 -240 -114 -319 -218 -665 -567 -895
-901 -331 -480 -535 -1015 -613 -1610 -23 -170 -31 -543 -16 -722 33 -382 107
-702 248 -1057 139 -353 359 -718 606 -1006 145 -168 405 -412 572 -536 33
-24 62 -46 65 -49 3 -3 39 -27 80 -53 203 -129 443 -125 644 12 16 11 178 168
360 350 229 228 338 331 353 331 12 0 68 -11 125 -25 230 -54 521 -76 733 -54
55 6 108 11 118 10 9 0 17 4 17 9 0 5 6 7 14 4 21 -8 221 33 346 71 333 101
757 341 877 498 78 102 94 253 39 373 -24 54 -68 101 -361 394 -183 183 -350
344 -371 357 -74 45 -179 61 -270 43 -29 -6 -84 -31 -125 -56 -41 -26 -94 -56
-119 -69 -114 -57 -283 -89 -410 -79 -41 4 -90 7 -107 8 -18 0 -33 4 -33 9 0
4 -7 7 -16 7 -30 0 -170 63 -237 107 -133 88 -253 233 -310 375 -74 185 -76
421 -5 598 80 201 262 387 455 465 29 12 49 26 45 30 -4 5 -2 5 4 2 6 -4 34
-1 62 7 28 7 109 14 179 15 185 3 310 -33 456 -132 102 -68 141 -81 242 -82
156 0 162 5 549 391 181 181 339 345 352 365 86 137 65 333 -49 448 -136 137
-441 318 -698 414 -114 43 -300 96 -350 101 -20 2 -40 6 -46 9 -5 3 -31 8 -59
12 -27 3 -80 10 -119 15 -101 14 -363 19 -480 9 -124 -10 -276 -35 -377 -60
-91 -23 -83 -22 -100 -5 -183 191 -659 662 -690 683 -67 45 -167 86 -215 87
-23 0 -43 4 -43 7 0 12 -123 8 -187 -6z m222 -344 c25 -12 141 -121 313 -294
l274 -274 -99 -53 c-104 -56 -236 -139 -241 -152 -2 -5 -8 -8 -13 -8 -9 0 -91
-63 -184 -140 -104 -87 -272 -273 -393 -435 -61 -82 -186 -307 -230 -415 -13
-30 -27 -64 -32 -75 -9 -19 -36 -95 -45 -125 -58 -196 -86 -319 -100 -435 -2
-16 -7 -57 -11 -90 -14 -125 -7 -436 13 -550 2 -16 9 -52 13 -80 15 -91 21
-120 34 -165 8 -25 14 -48 14 -53 1 -13 33 -121 41 -142 5 -11 15 -36 21 -55
67 -189 241 -504 357 -645 111 -135 214 -242 328 -341 81 -70 220 -174 234
-174 5 0 11 -4 13 -8 3 -10 151 -98 230 -138 l51 -26 -274 -274 c-295 -296
-322 -316 -413 -316 -71 -1 -120 23 -251 122 -282 212 -551 491 -725 750 -24
36 -46 67 -49 70 -3 3 -12 16 -20 30 -8 14 -33 54 -55 90 -53 87 -164 306
-205 405 -18 44 -37 89 -42 100 -11 26 -76 222 -79 240 -1 3 -6 19 -11 37 -26
85 -64 245 -74 313 -2 11 -8 52 -14 90 -28 178 -35 278 -35 490 0 198 11 366
34 500 5 33 12 71 14 85 4 22 32 161 41 200 58 251 249 719 356 872 11 14 19
29 19 32 0 9 114 180 123 184 4 2 7 10 7 17 0 7 3 15 8 17 4 2 32 37 64 78 31
41 65 85 75 96 10 12 38 46 63 75 79 95 297 307 390 379 25 19 47 37 50 40 18
20 191 140 220 153 66 30 130 29 195 -2z m1875 -705 c19 -3 46 -8 60 -12 14
-3 39 -7 55 -8 110 -12 380 -103 537 -182 147 -74 358 -217 379 -256 10 -19
-20 -52 -287 -320 -165 -165 -307 -303 -316 -309 -13 -7 -46 21 -173 149 -86
86 -325 327 -532 535 -207 207 -373 380 -369 384 25 25 527 39 646 19z m-669
-487 c198 -199 359 -365 359 -369 0 -4 -28 -11 -62 -15 -87 -9 -104 -12 -173
-31 -33 -9 -64 -17 -70 -18 -28 -8 -105 -40 -165 -71 -89 -44 -108 -56 -120
-70 -7 -8 -18 -15 -25 -15 -8 0 -15 -3 -17 -7 -1 -5 -23 -24 -48 -44 -174
-140 -299 -324 -370 -541 -77 -236 -73 -513 12 -738 87 -233 227 -415 426
-554 66 -46 208 -122 253 -135 8 -2 50 -15 94 -28 80 -24 100 -28 210 -39 33
-4 62 -8 65 -11 2 -2 -160 -168 -360 -369 -337 -336 -367 -364 -392 -358 -45
9 -236 111 -342 181 -230 153 -430 354 -581 583 -58 89 -195 356 -195 381 0 8
-4 19 -8 25 -5 5 -14 29 -21 54 -7 25 -17 54 -21 65 -7 17 -16 47 -25 90 -2 6
-8 28 -14 50 -6 22 -13 56 -15 75 -3 19 -8 46 -10 60 -26 123 -27 588 -1 630
2 4 6 28 10 55 3 27 13 77 21 110 9 33 18 68 19 78 2 9 7 22 10 27 3 5 8 20
10 32 8 41 77 211 123 303 55 109 175 294 250 384 62 75 216 229 281 281 24
19 48 40 55 45 14 13 184 126 211 141 111 61 155 83 155 76 0 -4 4 -2 8 4 7
10 78 42 96 43 5 1 170 -161 367 -360z m1402 -2765 c159 -159 293 -297 298
-306 13 -24 -3 -46 -64 -88 -152 -104 -195 -133 -227 -149 -19 -10 -51 -27
-70 -38 -86 -48 -340 -145 -420 -159 -14 -3 -38 -9 -55 -14 -16 -4 -46 -11
-65 -14 -19 -3 -46 -8 -59 -11 -80 -15 -159 -20 -341 -20 -180 0 -246 4 -325
20 -11 2 -28 4 -37 4 -10 1 -18 5 -18 11 0 5 239 249 530 540 428 428 534 529
547 521 9 -5 147 -139 306 -297z"/>
</g>
</svg>
